<?xml version="1.0" encoding="UTF-8"?>
<svg id="Layer_1" data-name="Layer 1" xmlns="http://www.w3.org/2000/svg" viewBox="0 0 346.65 340.39">
  <defs>
    <style>
      .cls-1 {
        fill: #fefefe;
      }

      .cls-1, .cls-2 {
        stroke-width: 0px;
      }

      .cls-2 {
        fill: #1d1e1d;
      }
    </style>
  </defs>
  <path class="cls-2" d="M346.64,181.84c0,1.8,0,3.6,0,5.4-.19,7.15-1.05,14.22-2.64,21.2-3.72,16.32-10.67,31.1-21.1,44.21-10.29,12.93-22.89,23-37.73,30.26-6.15,3.01-12.54,5.41-19.14,7.25-.44.12-.92.48-1.18.86-10.58,15.87-24.26,28.31-41.19,37.13-10.37,5.4-21.33,9.01-32.87,10.87-5.28.85-10.6,1.29-15.96,1.36-17.85.24-34.77-3.6-50.7-11.63-17.24-8.69-31.18-21.14-41.93-37.17-.59-.87-1.24-1.36-2.25-1.65-17.72-5.02-33.29-13.85-46.54-26.64-14.88-14.37-24.82-31.65-30.01-51.65-2.01-7.74-3.12-15.62-3.36-23.62-.56-18.7,3.41-36.39,11.85-53.08,3.42-6.77,7.53-13.11,12.26-19.04.22-.28.37-.72.35-1.07-.52-10.78.55-21.4,3.15-31.87,4.11-16.52,11.68-31.29,22.67-44.28,9.74-11.51,21.42-20.57,34.9-27.3,9.95-4.97,20.45-8.3,31.44-10.02,19.13-2.99,37.75-1.03,55.88,5.7.46.17,1.09.16,1.55-.02,9.94-3.71,20.18-5.96,30.76-6.73,19.83-1.43,38.67,2.27,56.49,11.04,9.89,4.86,18.83,11.13,26.81,18.74,16.12,15.38,26.58,33.97,31.48,55.69,1.52,6.72,2.4,13.53,2.52,20.43.05,2.86-.03,5.72-.01,8.58,0,.39.14.86.38,1.17,11.32,14.28,18.79,30.33,22.22,48.25,1.12,5.83,1.73,11.71,1.89,17.64ZM137.43,139.06c-5.56,2.12-10.83,4.8-15.87,7.92,2.31,5.59,5.01,10.84,8.29,15.9.1-.22.15-.3.17-.37,1-4.92,2.33-9.76,4.05-14.48,1.08-2.97,2.31-5.89,3.48-8.84.03-.05.06-.1.09-.16-.07,0-.13.02-.2.02ZM249.74,293.48c-.9.03-1.79.03-2.69.1-9.49.78-18.93.48-28.32-1.16-13.82-2.41-26.74-7.23-38.71-14.55-2.28-1.39-4.49-2.91-6.76-4.38-.14.09-.28.19-.42.29-6.21,4.4-12.8,8.13-19.79,11.14-10.52,4.52-21.45,7.42-32.86,8.54-6.52.64-13.03.7-19.56.18-1.19-.1-2.38-.13-3.58-.2,0-.04,0-.09,0-.13-.03,0-.06,0-.08.01.03.03.07.07.1.1.17.26.33.53.52.77,4.28,5.12,8.98,9.81,14.24,13.91,22.79,17.76,48.52,24.52,77.08,20.31,10.7-1.58,20.82-5.08,30.38-10.14,9.71-5.14,18.34-11.7,25.85-19.72,1.56-1.66,3.05-3.38,4.58-5.07-.04-.04-.07-.08,0,0-.09-.06-.05-.03,0,0ZM273.05,276.43c.16-.04.34-.07.49-.13,12.96-5.18,24.38-12.69,34.18-22.65,7.1-7.22,12.94-15.36,17.49-24.4,6.75-13.4,10.35-27.62,10.72-42.62.16-6.34-.33-12.64-1.43-18.89-2.27-12.95-6.98-24.95-13.96-36.07-.11-.17-.25-.32-.42-.54-.08.33-.15.55-.2.77-2.07,10-5.49,19.52-10.28,28.54-7.74,14.56-18.16,26.84-31.37,36.73-.42.31-.68.55-.49,1.18,3.85,12.3,5.43,24.89,4.83,37.77-.45,9.78-2.1,19.34-5.21,28.61-1.32,3.93-2.94,7.75-4.43,11.62,0,.07-.01.13-.02.2.03-.04.06-.08.09-.12ZM273.77,187.04c.13-.1.36-.26.58-.44,13.78-11.08,23.92-24.85,30.44-41.29,3.25-8.2,5.28-16.71,6.2-25.48.04-.4-.08-.95-.34-1.24-8.75-9.8-19.08-17.5-30.94-23.13-11.03-5.24-22.65-8.34-34.82-9.36-1.36-.11-2.73-.16-4.1-.23,0,.19-.01.25,0,.31,1.84,8.51,2.66,17.11,2.44,25.81-.25,10.17-1.86,20.1-4.87,29.81-.23.73-.09,1.09.52,1.55,11.95,8.99,21.75,19.91,29.2,32.88,2.02,3.52,3.79,7.18,5.69,10.81ZM173.33,95.66c15.99-11.31,33.68-18.05,53.21-20.06-.11-.3-.2-.57-.3-.83-5.48-14.51-13.9-27.05-25.23-37.63-7.98-7.45-16.99-13.36-26.96-17.81-.54-.24-1-.31-1.55-.03-1.13.57-2.3,1.06-3.43,1.63-21.12,10.63-36.5,26.77-46.35,48.23-.96,2.09-1.77,4.24-2.68,6.44,19.62,2.01,37.3,8.76,53.29,20.06ZM268.32,203.79c-5.95,3.47-11.93,6.3-18.18,8.55-9.17,3.3-18.61,5.39-28.33,6.15-2.42.19-4.84.27-7.27.34-.85.02-1.28.26-1.57,1.15-1.79,5.37-4.06,10.54-6.69,15.55-5.39,10.22-12.18,19.4-20.48,27.44-1.21,1.17-2.44,2.32-3.67,3.49.13.1.19.16.26.21,16.03,10.53,33.62,16.09,52.79,16.61,7.59.2,15.12-.51,22.54-2.16.36-.08.79-.38.97-.7,1.34-2.45,2.72-4.89,3.92-7.41,5.76-12.12,8.85-24.92,9.36-38.32.29-7.44-.22-14.84-1.69-22.16-.58-2.88-1.27-5.73-1.94-8.73ZM78.39,203.99c-2.5,8.72-3.73,17.64-3.76,26.73-.02,5.35.4,10.67,1.26,15.96,1.94,11.98,5.96,23.2,12.05,33.69.2.34.66.68,1.04.74,3.87.63,7.74,1.35,11.64,1.75,9.37.96,18.7.39,27.93-1.47,12.67-2.54,24.43-7.33,35.24-14.41.25-.16.48-.35.69-.5-2.08-2.05-4.17-4.01-6.15-6.07-11.22-11.66-19.4-25.18-24.65-40.48-.29-.84-.7-1.05-1.52-1.1-4.52-.31-9.06-.49-13.55-1.07-10.54-1.34-20.64-4.33-30.29-8.79-3.34-1.55-6.59-3.29-9.94-4.98ZM105.9,85.92c-.36,0-.64-.01-.93,0-5.25.3-10.46.9-15.62,2.01-21.01,4.5-38.76,14.67-53.2,30.58-.28.31-.48.88-.43,1.28.35,2.75.67,5.51,1.21,8.22,4.55,23.05,15.91,42.12,33.78,57.33.73.62,1.5,1.21,2.28,1.84,7.98-18.04,19.87-32.76,35.54-44.46-5.81-18.7-6.76-37.59-2.63-56.81ZM311.35,103.95C306.99,36.41,241.73-1.8,187.68,14.12c.22.13.41.26.61.37,13.84,7.94,25.37,18.43,34.65,31.41,6.21,8.69,11.06,18.09,14.51,28.21.17.49.19,1.01,1,1.01,7.59.04,15.09.92,22.5,2.6,16.92,3.82,32.14,11.13,45.58,22.12,1.6,1.31,3.15,2.68,4.82,4.11ZM26.43,131.28c-16.66,27.4-20.6,56.39-9.74,86.75,10.01,28,29.51,47.17,56.94,58.58.02-.27.05-.33.03-.37-.09-.21-.19-.42-.28-.63-6.86-15.39-9.95-31.53-9.43-48.35.31-9.83,1.93-19.46,4.87-28.85.16-.51.14-.8-.33-1.15-7.8-5.78-14.68-12.51-20.67-20.15-10.66-13.61-17.76-28.87-21.4-45.82ZM35.22,103.69l.22.15c.19-.16.4-.31.58-.48,7.76-7.02,16.34-12.82,25.78-17.34,14.64-7,30.06-10.7,46.29-10.9.59,0,.83-.16,1.03-.73,1.74-5.17,3.85-10.18,6.37-15.02,7.81-15,18.4-27.66,32-37.72,3.66-2.71,7.54-5.11,11.2-7.57-20.42-5.8-51.77-5.62-79.72,13.41-26.86,18.29-40.93,44.09-43.75,76.21ZM138.85,174.17c.26.49.42,1.06.78,1.45,1.68,1.79,3.37,3.58,5.14,5.27,8.21,7.85,17.53,14.07,27.92,18.69.36.16.91.19,1.26.04,12.74-5.72,23.81-13.74,33.2-24.08.41-.45.56-.89.47-1.47-.29-1.94-.52-3.89-.84-5.83-1.98-11.72-5.94-22.73-11.88-33.03-.2-.34-.64-.67-1.03-.75-7.51-1.63-15.11-2.34-22.79-2.16-6.19.15-12.32.83-18.37,2.17-.36.08-.78.39-.95.71-1.28,2.35-2.58,4.7-3.73,7.12-4.77,10.07-7.74,20.66-9.18,31.86ZM173.33,259.85c13.22-11.33,22.73-25.15,28.82-41.41-.2-.06-.28-.1-.36-.11-9.61-.95-18.92-3.17-27.96-6.58-.33-.12-.79-.09-1.13.04-7.61,2.88-15.44,4.89-23.5,6.02-1.53.21-3.06.4-4.71.61,6.11,16.3,15.62,30.1,28.83,41.43ZM130.25,208.1c-.02-.26-.02-.43-.04-.59-.47-2.7-1.01-5.39-1.41-8.1-.98-6.62-1.22-13.28-.91-19.96.03-.61-.1-1.08-.5-1.57-5.89-7.32-10.74-15.29-14.55-23.87-.1-.22-.23-.43-.37-.69-13.61,10.82-23.74,24.15-30.45,40.19,14.85,9.06,30.9,13.82,48.23,14.6ZM182.1,102.66c.41.38.73.68,1.05.97,6.76,6.16,12.67,13.05,17.69,20.69.39.6.84.94,1.52,1.13,7.46,2.01,14.59,4.84,21.44,8.4,1.63.85,3.23,1.75,4.92,2.66,4.66-16.76,5.01-33.51,1.02-50.43-17.34,1.41-33.14,6.99-47.64,16.58ZM118.02,136.48c.23-.12.46-.24.68-.37,7.98-4.6,16.41-8.14,25.28-10.58.94-.26,1.52-.72,2.05-1.51,4.2-6.36,9.02-12.22,14.48-17.54,1.3-1.26,2.61-2.5,3.97-3.8-14.48-9.59-30.28-15.12-47.51-16.54-4.07,12.11-3.49,39.58,1.04,50.34ZM234.15,153.29c-4.77,10.69-9.94,18.42-14.82,24.49-.48.6-.62,1.16-.57,1.88.4,6.89,0,13.74-1.01,20.56-.38,2.59-.87,5.17-1.31,7.75,11.61.95,39.3-7.43,48.15-14.62-6.68-15.94-16.82-29.26-30.43-40.07ZM141.34,207.89c6.02-.46,11.92-1.43,17.87-3.02-7.46-4.22-14.24-9.16-20.54-14.9-.02,4.05,1.5,14.23,2.67,17.93ZM160.61,122.26c8.52-.94,16.83-.93,25.36-.02-3.94-4.81-8.1-9.03-12.68-12.91-4.59,3.88-8.74,8.11-12.67,12.93ZM208.03,189.91c-6.36,5.82-13.11,10.69-20.51,14.93,6,1.56,11.86,2.55,17.86,2.98,1.42-5.86,2.32-11.74,2.64-17.91ZM209.12,138.92c3.33,7.78,5.89,15.69,7.6,23.93.12-.1.21-.14.25-.21,3.08-4.82,5.71-9.88,7.93-15.15.21-.5,0-.67-.36-.86-2.81-1.52-5.59-3.12-8.44-4.56-2.27-1.15-4.64-2.1-6.97-3.14Z"/>
  <path class="cls-1" d="M97.09,293.43s-.07-.07-.1-.1c.03,0,.06,0,.08-.01,0,.04,0,.09,0,.13,0,0,.02-.01.02-.01Z"/>
  <path class="cls-1" d="M249.74,293.48s-.09-.06,0,0c-.08-.09-.04-.04,0,0,0,0,0,0,0,0Z"/>
</svg>